<?xml version="1.0" encoding="utf-8"?>
<!-- Generator: Adobe Illustrator 27.5.0, SVG Export Plug-In . SVG Version: 6.00 Build 0)  -->
<svg version="1.1" id="Layer_1" xmlns="http://www.w3.org/2000/svg" xmlns:xlink="http://www.w3.org/1999/xlink" x="0px" y="0px"
	 viewBox="0 0 300 300" style="enable-background:new 0 0 300 300;" xml:space="preserve">
<style type="text/css">
	.st0{fill:none;stroke:#14097A;stroke-width:3;stroke-miterlimit:10;}
	.st1{fill:#80C41C;stroke:#14097A;stroke-width:3;stroke-miterlimit:10;}
	.st2{fill:#FD1A16;stroke:#14097A;stroke-width:3;stroke-miterlimit:10;}
	.st3{fill:#FFFFFF;stroke:#14097A;stroke-width:3;stroke-miterlimit:10;}
	.st4{fill:#FFFF01;stroke:#14097A;stroke-width:3;stroke-miterlimit:10;}
	.st5{fill:#01A0C6;stroke:#14097A;stroke-width:3;stroke-miterlimit:10;}
	.st6{fill:#FFFFFF;stroke:#000000;stroke-width:1.5;stroke-miterlimit:10;}
	.st7{fill:#4D4D4D;stroke:#000000;stroke-width:1.5;stroke-miterlimit:10;}
	.st8{fill:#FD1A16;}
	.st9{fill:#FFFF01;}
	.st10{fill:#80C41C;}
	.st11{fill:#01A0C6;}
</style>
<g>
	<polyline class="st0" points="183.79,113.81 215.93,113.81 215.93,95.81 202.66,82.53 	"/>
	<line class="st0" x1="193.47" y1="144.99" x2="230.6" y2="144.99"/>
	<line class="st0" x1="186.31" y1="172.05" x2="247.25" y2="172.05"/>
	<polyline class="st0" points="177.49,183.76 213.27,210.15 213.27,243.55 	"/>
	<line class="st0" x1="141.68" y1="199.92" x2="141.68" y2="238.28"/>
	<polyline class="st0" points="97.94,182.25 97.94,225.62 58.09,225.62 58.09,251.29 	"/>
	<polyline class="st0" points="84.99,160.61 45.03,161.97 45.03,188.7 	"/>
	<polyline class="st0" points="84.99,135.82 39.68,136.59 39.68,110.78 	"/>
	<polyline class="st0" points="98.46,106.9 67.67,106.9 67.67,89.18 85.75,71.1 	"/>
	<line class="st0" x1="138.44" y1="89.95" x2="138.44" y2="58.35"/>
	<circle class="st0" cx="138.44" cy="45.5" r="12.85"/>
	<circle class="st1" cx="192.27" cy="76.17" r="12.85"/>
	<circle class="st0" cx="243.45" cy="143.56" r="12.85"/>
	<circle class="st0" cx="260.1" cy="171.09" r="12.85"/>
	<circle class="st2" cx="213.27" cy="255.32" r="12.85"/>
	<circle class="st3" cx="141.68" cy="251.29" r="12.85"/>
	<circle class="st3" cx="58.09" cy="255.32" r="12.85"/>
	<circle class="st4" cx="45.7" cy="196.61" r="12.85"/>
	<circle class="st3" cx="39.68" cy="100.05" r="12.85"/>
	<circle class="st5" cx="93.37" cy="63.32" r="12.85"/>
	<g>
		<circle class="st0" cx="138.44" cy="145.54" r="55.04"/>
		<g>
			<polygon class="st6" points="173.46,134.17 173.46,130.67 138.41,111.17 103.42,130.67 103.42,134.17 			"/>
			<rect x="104.23" y="173.84" class="st6" width="68.42" height="6.08"/>
			<rect x="135.79" y="137.16" class="st7" width="5.67" height="36.54"/>
			<g>
				<rect x="110.37" y="137.16" class="st7" width="5.67" height="36.54"/>
				
					<rect x="108.16" y="165.09" transform="matrix(6.123234e-17 -1 1 6.123234e-17 -54.5704 280.981)" class="st8" width="10.09" height="5.36"/>
			</g>
			<g>
				<rect x="123.08" y="137.16" class="st7" width="5.67" height="36.54"/>
				
					<rect x="120.87" y="146.69" transform="matrix(6.123234e-17 -1 1 6.123234e-17 -23.4558 275.2846)" class="st9" width="10.09" height="5.36"/>
			</g>
			<g>
				<rect x="148.5" y="137.16" class="st7" width="5.67" height="36.54"/>
				
					<rect x="139.61" y="158.41" transform="matrix(6.123234e-17 -1 1 6.123234e-17 -9.7616 312.4268)" class="st10" width="23.45" height="5.36"/>
			</g>
			<g>
				<rect x="161.21" y="137.16" class="st7" width="5.67" height="36.54"/>
				
					<rect x="159.25" y="139.72" transform="matrix(6.123234e-17 -1 1 6.123234e-17 21.6384 306.4451)" class="st11" width="9.58" height="5.36"/>
			</g>
		</g>
	</g>
</g>
</svg>
